<?xml version="1.0" encoding="utf-8"?><!-- Uploaded to: SVG Repo, www.svgrepo.com, Generator: SVG Repo Mixer Tools -->
<svg width="800px" height="800px" viewBox="0 0 24 24" fill="none" xmlns="http://www.w3.org/2000/svg">
<path fill-rule="evenodd" clip-rule="evenodd" d="M15.8366 6.69886C16.9303 7.76766 17.5493 9.24943 17.5493 10.7989C17.5493 12.3483 16.9303 13.8301 15.8366 14.8989L11.6996 18.9989L7.56271 14.8989C6.46897 13.8301 5.84998 12.3483 5.84998 10.7989C5.84998 9.24943 6.46897 7.76766 7.56271 6.69886C9.87852 4.43371 13.5207 4.43371 15.8366 6.69886Z" stroke="#000000" stroke-width="1.5" stroke-linecap="round" stroke-linejoin="round"/>
<path fill-rule="evenodd" clip-rule="evenodd" d="M14.0396 10.4429C14.0311 11.0706 13.7798 11.6693 13.341 12.107C12.9021 12.5447 12.3117 12.7857 11.6996 12.7769C11.0875 12.7857 10.4971 12.5447 10.0583 12.107C9.6194 11.6693 9.36809 11.0706 9.35962 10.4429C9.3778 9.13594 10.4254 8.0915 11.6996 8.10986C12.9739 8.0915 14.0214 9.13594 14.0396 10.4429V10.4429Z" stroke="#000000" stroke-width="1.5" stroke-linecap="round" stroke-linejoin="round"/>
</svg>